<svg xmlns="http://www.w3.org/2000/svg" xmlns:xlink="http://www.w3.org/1999/xlink" width="240" zoomAndPan="magnify" viewBox="0 0 180 104.999996" height="140" preserveAspectRatio="xMidYMid meet" version="1.2"><defs><clipPath id="c90cfb5e8e"><path d="M 81 11.453125 L 99 11.453125 L 99 36 L 81 36 Z M 81 11.453125 "/></clipPath><clipPath id="a871e22a81"><path d="M 74.464844 27 L 105 27 L 105 48.953125 L 74.464844 48.953125 Z M 74.464844 27 "/></clipPath></defs><g id="ff1cc7da55"><rect x="0" width="180" y="0" height="104.999996" style="fill:#ffffff;fill-opacity:1;stroke:none;"/><rect x="0" width="180" y="0" height="104.999996" style="fill:#242323;fill-opacity:1;stroke:none;"/><g clip-rule="nonzero" clip-path="url(#c90cfb5e8e)"><path style=" stroke:none;fill-rule:nonzero;fill:#c1ff72;fill-opacity:1;" d="M 89.847656 11.460938 C 85.160156 11.460938 81.359375 15.257812 81.359375 19.945312 C 81.359375 23.257812 85.59375 30.695312 88.082031 34.78125 C 88.886719 36.105469 90.808594 36.105469 91.613281 34.78125 C 94.101562 30.695312 98.335938 23.257812 98.335938 19.945312 C 98.335938 15.257812 94.535156 11.460938 89.847656 11.460938 Z M 89.847656 25.191406 C 87.054688 25.191406 84.792969 22.929688 84.792969 20.136719 C 84.792969 17.34375 87.054688 15.082031 89.847656 15.082031 C 92.640625 15.082031 94.902344 17.34375 94.902344 20.136719 C 94.902344 22.929688 92.640625 25.191406 89.847656 25.191406 Z M 89.847656 25.191406 "/></g><path style=" stroke:none;fill-rule:nonzero;fill:#c1ff72;fill-opacity:1;" d="M 92.632812 20.136719 C 92.632812 20.507812 92.5625 20.863281 92.421875 21.203125 C 92.28125 21.542969 92.078125 21.847656 91.820312 22.105469 C 91.558594 22.367188 91.253906 22.570312 90.914062 22.710938 C 90.574219 22.851562 90.21875 22.921875 89.847656 22.921875 C 89.476562 22.921875 89.121094 22.851562 88.78125 22.710938 C 88.441406 22.570312 88.136719 22.367188 87.878906 22.105469 C 87.617188 21.847656 87.414062 21.542969 87.273438 21.203125 C 87.132812 20.863281 87.0625 20.507812 87.0625 20.136719 C 87.0625 19.765625 87.132812 19.410156 87.273438 19.070312 C 87.414062 18.730469 87.617188 18.425781 87.878906 18.167969 C 88.136719 17.90625 88.441406 17.703125 88.78125 17.5625 C 89.121094 17.421875 89.476562 17.351562 89.847656 17.351562 C 90.21875 17.351562 90.574219 17.421875 90.914062 17.5625 C 91.253906 17.703125 91.558594 17.90625 91.820312 18.167969 C 92.078125 18.425781 92.28125 18.730469 92.421875 19.070312 C 92.5625 19.410156 92.632812 19.765625 92.632812 20.136719 Z M 92.632812 20.136719 "/><g clip-rule="nonzero" clip-path="url(#a871e22a81)"><path style=" stroke:none;fill-rule:nonzero;fill:#c1ff72;fill-opacity:1;" d="M 104.941406 45.230469 L 102.40625 29.308594 C 102.207031 28.054688 101.125 27.132812 99.855469 27.132812 L 97.046875 27.132812 C 96.734375 27.789062 96.402344 28.449219 96.058594 29.113281 L 97.976562 29.113281 C 99.007812 29.113281 99.886719 29.863281 100.046875 30.882812 L 100.652344 34.671875 L 99.71875 34.671875 C 97.648438 34.671875 95.671875 34.042969 94.007812 32.882812 C 93.683594 33.460938 93.359375 34.015625 93.046875 34.550781 C 93.226562 34.671875 93.410156 34.789062 93.597656 34.902344 L 89.421875 39.746094 L 88.925781 38.984375 C 88.003906 37.566406 86.4375 36.71875 84.746094 36.71875 L 82.269531 36.71875 L 86.121094 33.640625 C 85.808594 33.097656 85.484375 32.53125 85.164062 31.957031 L 79.199219 36.71875 L 78.722656 36.71875 L 79.648438 30.882812 C 79.8125 29.863281 80.691406 29.113281 81.722656 29.113281 L 83.636719 29.113281 C 83.296875 28.449219 82.964844 27.789062 82.652344 27.132812 L 79.84375 27.132812 C 78.570312 27.132812 77.492188 28.054688 77.289062 29.308594 L 74.753906 45.230469 C 74.507812 46.800781 75.71875 48.21875 77.308594 48.21875 L 102.390625 48.21875 C 103.976562 48.21875 105.191406 46.800781 104.941406 45.230469 Z M 95.371094 35.773438 C 96.738281 36.308594 98.207031 36.585938 99.71875 36.585938 L 100.953125 36.585938 L 101.585938 40.539062 L 91.265625 40.539062 Z M 79.664062 46.238281 C 78.371094 46.238281 77.386719 45.085938 77.589844 43.8125 L 78.414062 38.632812 L 84.746094 38.632812 C 85.789062 38.632812 86.75 39.15625 87.320312 40.027344 L 91.367188 46.238281 Z M 100.03125 46.238281 L 93.652344 46.238281 L 91.1875 42.457031 L 101.886719 42.457031 L 102.105469 43.8125 C 102.308594 45.085938 101.324219 46.238281 100.03125 46.238281 Z M 100.03125 46.238281 "/></g><g style="fill:#ffffff;fill-opacity:1;"><g transform="translate(48.903329, 68.133114)"><path style="stroke:none" d="M 14.21875 -1.8125 L 17.734375 -13.078125 L 19.265625 -13.078125 L 15.078125 0 L 13.484375 0 L 9.84375 -10.609375 L 6.21875 0 L 4.625 0 L 0.40625 -13.0625 L 1.9375 -13.0625 L 5.5 -1.8125 L 9.203125 -13.0625 L 10.5 -13.0625 Z M 14.21875 -1.8125 "/></g></g><g style="fill:#ffffff;fill-opacity:1;"><g transform="translate(68.578689, 68.133114)"><path style="stroke:none" d="M 10.59375 -4.53125 L 2.421875 -4.53125 C 2.535156 -3.457031 2.945312 -2.613281 3.65625 -2 C 4.363281 -1.394531 5.265625 -1.09375 6.359375 -1.09375 C 6.929688 -1.09375 7.484375 -1.164062 8.015625 -1.3125 C 8.546875 -1.46875 9.039062 -1.703125 9.5 -2.015625 L 9.890625 -0.796875 C 9.335938 -0.453125 8.785156 -0.203125 8.234375 -0.046875 C 7.679688 0.0976562 7.023438 0.171875 6.265625 0.171875 C 5.242188 0.171875 4.332031 -0.0507812 3.53125 -0.5 C 2.738281 -0.945312 2.113281 -1.566406 1.65625 -2.359375 C 1.207031 -3.148438 0.984375 -4.050781 0.984375 -5.0625 C 0.984375 -6.0625 1.195312 -6.953125 1.625 -7.734375 C 2.0625 -8.523438 2.664062 -9.144531 3.4375 -9.59375 C 4.21875 -10.039062 5.117188 -10.265625 6.140625 -10.265625 C 7.035156 -10.265625 7.832031 -10.070312 8.53125 -9.6875 C 9.238281 -9.3125 9.789062 -8.789062 10.1875 -8.125 C 10.59375 -7.457031 10.796875 -6.703125 10.796875 -5.859375 C 10.796875 -5.597656 10.773438 -5.359375 10.734375 -5.140625 C 10.703125 -4.929688 10.65625 -4.726562 10.59375 -4.53125 Z M 6.140625 -9 C 5.117188 -9 4.273438 -8.703125 3.609375 -8.109375 C 2.953125 -7.515625 2.5625 -6.703125 2.4375 -5.671875 L 9.390625 -5.671875 C 9.410156 -6.710938 9.113281 -7.523438 8.5 -8.109375 C 7.894531 -8.703125 7.109375 -9 6.140625 -9 Z M 6.140625 -9 "/></g></g><g style="fill:#ffffff;fill-opacity:1;"><g transform="translate(80.365256, 68.133114)"><path style="stroke:none" d="M 5.125 -10.265625 C 6.5625 -10.265625 7.640625 -9.914062 8.359375 -9.21875 C 9.078125 -8.519531 9.4375 -7.535156 9.4375 -6.265625 L 9.4375 0 L 8.046875 0 L 8.046875 -2 C 7.867188 -1.644531 7.601562 -1.300781 7.25 -0.96875 C 6.894531 -0.632812 6.457031 -0.359375 5.9375 -0.140625 C 5.425781 0.078125 4.832031 0.1875 4.15625 0.1875 C 3.070312 0.1875 2.21875 -0.0976562 1.59375 -0.671875 C 0.976562 -1.253906 0.671875 -2 0.671875 -2.90625 C 0.671875 -3.832031 0.984375 -4.585938 1.609375 -5.171875 C 2.242188 -5.753906 3.21875 -6.046875 4.53125 -6.046875 C 5.175781 -6.046875 5.789062 -6.023438 6.375 -5.984375 C 6.957031 -5.953125 7.515625 -5.90625 8.046875 -5.84375 L 8.046875 -6.328125 C 8.046875 -7.222656 7.785156 -7.890625 7.265625 -8.328125 C 6.753906 -8.773438 6 -9 5 -9 C 4.425781 -9 3.851562 -8.9375 3.28125 -8.8125 C 2.71875 -8.695312 2.203125 -8.535156 1.734375 -8.328125 L 1.53125 -9.609375 C 2.09375 -9.816406 2.679688 -9.976562 3.296875 -10.09375 C 3.910156 -10.207031 4.519531 -10.265625 5.125 -10.265625 Z M 4.59375 -1.09375 C 5.332031 -1.09375 5.957031 -1.257812 6.46875 -1.59375 C 6.988281 -1.925781 7.378906 -2.347656 7.640625 -2.859375 C 7.910156 -3.367188 8.046875 -3.890625 8.046875 -4.421875 L 8.046875 -4.71875 C 7.566406 -4.789062 7.078125 -4.84375 6.578125 -4.875 C 6.085938 -4.914062 5.539062 -4.9375 4.9375 -4.9375 C 3.90625 -4.9375 3.160156 -4.765625 2.703125 -4.421875 C 2.242188 -4.085938 2.015625 -3.609375 2.015625 -2.984375 C 2.015625 -2.378906 2.238281 -1.910156 2.6875 -1.578125 C 3.132812 -1.253906 3.769531 -1.09375 4.59375 -1.09375 Z M 4.59375 -1.09375 "/></g></g><g style="fill:#ffffff;fill-opacity:1;"><g transform="translate(91.182041, 68.133114)"><path style="stroke:none" d="M 5.15625 0.1875 C 4.257812 0.1875 3.550781 -0.0703125 3.03125 -0.59375 C 2.507812 -1.113281 2.25 -1.847656 2.25 -2.796875 L 2.25 -8.8125 L 0.734375 -8.8125 L 0.734375 -9.609375 L 1.265625 -10.1875 L 3.015625 -12.125 L 3.65625 -12.125 L 3.65625 -10.09375 L 7.09375 -10.09375 L 7.09375 -8.8125 L 3.65625 -8.8125 L 3.65625 -3.0625 C 3.65625 -2.445312 3.804688 -1.960938 4.109375 -1.609375 C 4.421875 -1.265625 4.84375 -1.09375 5.375 -1.09375 C 5.675781 -1.09375 5.984375 -1.128906 6.296875 -1.203125 C 6.609375 -1.285156 6.890625 -1.398438 7.140625 -1.546875 L 7.421875 -0.421875 C 7.109375 -0.222656 6.75 -0.0703125 6.34375 0.03125 C 5.9375 0.132812 5.539062 0.1875 5.15625 0.1875 Z M 5.15625 0.1875 "/></g></g><g style="fill:#ffffff;fill-opacity:1;"><g transform="translate(99.36923, 68.133114)"><path style="stroke:none" d="M 6.8125 -10.265625 C 8.03125 -10.265625 9.003906 -9.878906 9.734375 -9.109375 C 10.472656 -8.335938 10.84375 -7.285156 10.84375 -5.953125 L 10.84375 0 L 9.4375 0 L 9.4375 -5.765625 C 9.4375 -6.773438 9.179688 -7.5625 8.671875 -8.125 C 8.160156 -8.6875 7.4375 -8.96875 6.5 -8.96875 C 5.644531 -8.96875 4.894531 -8.695312 4.25 -8.15625 C 3.613281 -7.613281 3.179688 -6.851562 2.953125 -5.875 L 2.953125 0 L 1.5625 0 L 1.5625 -13.765625 L 2.953125 -13.765625 L 2.953125 -8.046875 C 3.296875 -8.703125 3.789062 -9.234375 4.4375 -9.640625 C 5.082031 -10.054688 5.875 -10.265625 6.8125 -10.265625 Z M 6.8125 -10.265625 "/></g></g><g style="fill:#ffffff;fill-opacity:1;"><g transform="translate(111.584736, 68.133114)"><path style="stroke:none" d="M 10.59375 -4.53125 L 2.421875 -4.53125 C 2.535156 -3.457031 2.945312 -2.613281 3.65625 -2 C 4.363281 -1.394531 5.265625 -1.09375 6.359375 -1.09375 C 6.929688 -1.09375 7.484375 -1.164062 8.015625 -1.3125 C 8.546875 -1.46875 9.039062 -1.703125 9.5 -2.015625 L 9.890625 -0.796875 C 9.335938 -0.453125 8.785156 -0.203125 8.234375 -0.046875 C 7.679688 0.0976562 7.023438 0.171875 6.265625 0.171875 C 5.242188 0.171875 4.332031 -0.0507812 3.53125 -0.5 C 2.738281 -0.945312 2.113281 -1.566406 1.65625 -2.359375 C 1.207031 -3.148438 0.984375 -4.050781 0.984375 -5.0625 C 0.984375 -6.0625 1.195312 -6.953125 1.625 -7.734375 C 2.0625 -8.523438 2.664062 -9.144531 3.4375 -9.59375 C 4.21875 -10.039062 5.117188 -10.265625 6.140625 -10.265625 C 7.035156 -10.265625 7.832031 -10.070312 8.53125 -9.6875 C 9.238281 -9.3125 9.789062 -8.789062 10.1875 -8.125 C 10.59375 -7.457031 10.796875 -6.703125 10.796875 -5.859375 C 10.796875 -5.597656 10.773438 -5.359375 10.734375 -5.140625 C 10.703125 -4.929688 10.65625 -4.726562 10.59375 -4.53125 Z M 6.140625 -9 C 5.117188 -9 4.273438 -8.703125 3.609375 -8.109375 C 2.953125 -7.515625 2.5625 -6.703125 2.4375 -5.671875 L 9.390625 -5.671875 C 9.410156 -6.710938 9.113281 -7.523438 8.5 -8.109375 C 7.894531 -8.703125 7.109375 -9 6.140625 -9 Z M 6.140625 -9 "/></g></g><g style="fill:#ffffff;fill-opacity:1;"><g transform="translate(123.371299, 68.133114)"><path style="stroke:none" d="M 6.4375 -10.25 C 6.613281 -10.25 6.789062 -10.238281 6.96875 -10.21875 C 7.15625 -10.207031 7.351562 -10.1875 7.5625 -10.15625 L 7.390625 -8.8125 C 7.222656 -8.832031 7.039062 -8.84375 6.84375 -8.84375 C 6.644531 -8.851562 6.472656 -8.859375 6.328125 -8.859375 C 5.578125 -8.859375 4.945312 -8.675781 4.4375 -8.3125 C 3.9375 -7.957031 3.5625 -7.460938 3.3125 -6.828125 C 3.070312 -6.203125 2.953125 -5.488281 2.953125 -4.6875 L 2.953125 0 L 1.5625 0 L 1.5625 -10.09375 L 2.953125 -10.09375 L 2.953125 -7.984375 C 3.535156 -9.492188 4.695312 -10.25 6.4375 -10.25 Z M 6.4375 -10.25 "/></g></g><g style="fill:#ffffff;fill-opacity:1;"><g transform="translate(69.938154, 88.055109)"><path style="stroke:none" d="M 13.859375 0 L 12.328125 0 L 11 -2.921875 L 3.25 -2.921875 L 1.921875 0 L 0.40625 0 L 6.234375 -13.0625 L 8.015625 -13.0625 Z M 7.125 -11.5625 L 3.84375 -4.25 L 10.40625 -4.25 Z M 7.125 -11.5625 "/></g></g><g style="fill:#ffffff;fill-opacity:1;"><g transform="translate(84.205122, 88.055109)"><path style="stroke:none" d="M 2.953125 3.203125 L 1.5625 3.203125 L 1.5625 -10.09375 L 2.953125 -10.09375 L 2.953125 -7.953125 C 3.335938 -8.671875 3.890625 -9.234375 4.609375 -9.640625 C 5.335938 -10.054688 6.144531 -10.265625 7.03125 -10.265625 C 7.945312 -10.265625 8.773438 -10.039062 9.515625 -9.59375 C 10.265625 -9.144531 10.851562 -8.523438 11.28125 -7.734375 C 11.71875 -6.941406 11.9375 -6.035156 11.9375 -5.015625 C 11.9375 -3.984375 11.71875 -3.078125 11.28125 -2.296875 C 10.851562 -1.515625 10.265625 -0.90625 9.515625 -0.46875 C 8.773438 -0.03125 7.945312 0.1875 7.03125 0.1875 C 6.125 0.1875 5.3125 -0.0195312 4.59375 -0.4375 C 3.882812 -0.863281 3.335938 -1.441406 2.953125 -2.171875 Z M 6.828125 -1.125 C 7.546875 -1.125 8.1875 -1.285156 8.75 -1.609375 C 9.3125 -1.941406 9.753906 -2.398438 10.078125 -2.984375 C 10.398438 -3.578125 10.5625 -4.253906 10.5625 -5.015625 C 10.5625 -5.796875 10.398438 -6.484375 10.078125 -7.078125 C 9.753906 -7.671875 9.3125 -8.132812 8.75 -8.46875 C 8.1875 -8.800781 7.546875 -8.96875 6.828125 -8.96875 C 6.097656 -8.96875 5.4375 -8.804688 4.84375 -8.484375 C 4.257812 -8.160156 3.800781 -7.707031 3.46875 -7.125 C 3.132812 -6.539062 2.960938 -5.851562 2.953125 -5.0625 C 2.953125 -4.257812 3.117188 -3.5625 3.453125 -2.96875 C 3.785156 -2.382812 4.242188 -1.929688 4.828125 -1.609375 C 5.410156 -1.285156 6.078125 -1.125 6.828125 -1.125 Z M 6.828125 -1.125 "/></g></g><g style="fill:#ffffff;fill-opacity:1;"><g transform="translate(97.129316, 88.055109)"><path style="stroke:none" d="M 2.953125 3.203125 L 1.5625 3.203125 L 1.5625 -10.09375 L 2.953125 -10.09375 L 2.953125 -7.953125 C 3.335938 -8.671875 3.890625 -9.234375 4.609375 -9.640625 C 5.335938 -10.054688 6.144531 -10.265625 7.03125 -10.265625 C 7.945312 -10.265625 8.773438 -10.039062 9.515625 -9.59375 C 10.265625 -9.144531 10.851562 -8.523438 11.28125 -7.734375 C 11.71875 -6.941406 11.9375 -6.035156 11.9375 -5.015625 C 11.9375 -3.984375 11.71875 -3.078125 11.28125 -2.296875 C 10.851562 -1.515625 10.265625 -0.90625 9.515625 -0.46875 C 8.773438 -0.03125 7.945312 0.1875 7.03125 0.1875 C 6.125 0.1875 5.3125 -0.0195312 4.59375 -0.4375 C 3.882812 -0.863281 3.335938 -1.441406 2.953125 -2.171875 Z M 6.828125 -1.125 C 7.546875 -1.125 8.1875 -1.285156 8.75 -1.609375 C 9.3125 -1.941406 9.753906 -2.398438 10.078125 -2.984375 C 10.398438 -3.578125 10.5625 -4.253906 10.5625 -5.015625 C 10.5625 -5.796875 10.398438 -6.484375 10.078125 -7.078125 C 9.753906 -7.671875 9.3125 -8.132812 8.75 -8.46875 C 8.1875 -8.800781 7.546875 -8.96875 6.828125 -8.96875 C 6.097656 -8.96875 5.4375 -8.804688 4.84375 -8.484375 C 4.257812 -8.160156 3.800781 -7.707031 3.46875 -7.125 C 3.132812 -6.539062 2.960938 -5.851562 2.953125 -5.0625 C 2.953125 -4.257812 3.117188 -3.5625 3.453125 -2.96875 C 3.785156 -2.382812 4.242188 -1.929688 4.828125 -1.609375 C 5.410156 -1.285156 6.078125 -1.125 6.828125 -1.125 Z M 6.828125 -1.125 "/></g></g></g></svg>