<svg xmlns="http://www.w3.org/2000/svg" xmlns:xlink="http://www.w3.org/1999/xlink" width="240" zoomAndPan="magnify" viewBox="0 0 180 104.999996" height="140" preserveAspectRatio="xMidYMid meet" version="1.2"><defs><clipPath id="dc197e7b78"><path d="M 83 15.257812 L 99 15.257812 L 99 27 L 83 27 Z M 83 15.257812 "/></clipPath><clipPath id="64156e17b1"><path d="M 74 28 L 109.363281 28 L 109.363281 63 L 74 63 Z M 74 28 "/></clipPath><clipPath id="d1b95cd9dc"><path d="M 70.363281 46 L 88 46 L 88 64.757812 L 70.363281 64.757812 Z M 70.363281 46 "/></clipPath></defs><g id="bce74a5d39"><rect x="0" width="180" y="0" height="104.999996" style="fill:#ffffff;fill-opacity:1;stroke:none;"/><rect x="0" width="180" y="0" height="104.999996" style="fill:#242323;fill-opacity:1;stroke:none;"/><g clip-rule="nonzero" clip-path="url(#dc197e7b78)"><path style=" stroke:none;fill-rule:nonzero;fill:#ffffff;fill-opacity:1;" d="M 84.257812 26.988281 C 84.910156 26.988281 85.441406 26.457031 85.441406 25.804688 L 85.441406 23.515625 C 85.441406 20.550781 87.855469 18.136719 90.828125 18.136719 C 93.800781 18.136719 96.214844 20.550781 96.214844 23.515625 L 96.214844 25.804688 C 96.214844 26.457031 96.742188 26.988281 97.394531 26.988281 C 98.050781 26.988281 98.578125 26.457031 98.578125 25.804688 L 98.578125 23.835938 C 98.578125 19.699219 95.476562 16.0625 91.339844 15.789062 C 86.84375 15.496094 83.074219 19.074219 83.074219 23.515625 L 83.074219 25.804688 C 83.074219 26.457031 83.605469 26.988281 84.257812 26.988281 Z M 84.257812 26.988281 "/></g><g clip-rule="nonzero" clip-path="url(#64156e17b1)"><path style=" stroke:none;fill-rule:nonzero;fill:#c1ff72;fill-opacity:1;" d="M 109.144531 57.753906 L 106.539062 32.429688 C 106.332031 30.414062 104.636719 28.890625 102.613281 28.890625 L 79.042969 28.890625 C 77.015625 28.890625 75.320312 30.425781 75.113281 32.429688 L 74.460938 38.734375 C 74.023438 42.964844 78.046875 46.269531 82.109375 45.03125 L 84.3125 44.359375 C 86.824219 43.589844 89.625 44.859375 90.609375 47.640625 C 90.949219 48.609375 90.902344 49.667969 90.601562 50.652344 L 89.625 53.832031 C 88.28125 58.226562 91.566406 62.664062 96.15625 62.664062 L 104.714844 62.664062 C 107.355469 62.65625 109.417969 60.375 109.144531 57.753906 Z M 109.144531 57.753906 "/></g><g clip-rule="nonzero" clip-path="url(#d1b95cd9dc)"><path style=" stroke:none;fill-rule:nonzero;fill:#ffffff;fill-opacity:1;" d="M 85.148438 47.066406 L 72.398438 50.957031 C 70.542969 51.523438 70.410156 54.097656 72.199219 54.855469 L 75.238281 56.132812 C 76.847656 56.816406 78.132812 58.09375 78.816406 59.710938 L 80.09375 62.75 C 80.851562 64.539062 83.425781 64.40625 83.992188 62.550781 L 87.882812 49.800781 C 88.402344 48.125 86.832031 46.554688 85.148438 47.066406 Z M 85.148438 47.066406 "/></g><g style="fill:#c1ff72;fill-opacity:0.6588;"><g transform="translate(53.019246, 86.237426)"><path style="stroke:none" d="M 7.890625 0.171875 C 6.242188 0.171875 4.84375 0.0507812 3.6875 -0.1875 C 2.539062 -0.425781 1.664062 -0.863281 1.0625 -1.5 C 0.46875 -2.144531 0.171875 -3.066406 0.171875 -4.265625 L 4.65625 -4.265625 C 4.65625 -4.066406 4.738281 -3.890625 4.90625 -3.734375 C 5.082031 -3.585938 5.414062 -3.472656 5.90625 -3.390625 C 6.394531 -3.316406 7.113281 -3.28125 8.0625 -3.28125 C 8.945312 -3.28125 9.609375 -3.300781 10.046875 -3.34375 C 10.484375 -3.382812 10.769531 -3.445312 10.90625 -3.53125 C 11.050781 -3.625 11.125 -3.75 11.125 -3.90625 C 11.125 -4.070312 11.050781 -4.195312 10.90625 -4.28125 C 10.757812 -4.375 10.457031 -4.441406 10 -4.484375 C 9.539062 -4.523438 8.835938 -4.554688 7.890625 -4.578125 C 6.066406 -4.628906 4.601562 -4.78125 3.5 -5.03125 C 2.394531 -5.289062 1.59375 -5.691406 1.09375 -6.234375 C 0.59375 -6.785156 0.34375 -7.523438 0.34375 -8.453125 C 0.34375 -9.796875 0.972656 -10.765625 2.234375 -11.359375 C 3.503906 -11.960938 5.332031 -12.265625 7.71875 -12.265625 C 9.289062 -12.265625 10.625 -12.125 11.71875 -11.84375 C 12.8125 -11.570312 13.644531 -11.125 14.21875 -10.5 C 14.800781 -9.882812 15.09375 -9.0625 15.09375 -8.03125 L 10.59375 -8.03125 C 10.59375 -8.351562 10.328125 -8.5625 9.796875 -8.65625 C 9.273438 -8.757812 8.46875 -8.8125 7.375 -8.8125 C 6.664062 -8.8125 6.128906 -8.796875 5.765625 -8.765625 C 5.410156 -8.734375 5.164062 -8.675781 5.03125 -8.59375 C 4.894531 -8.519531 4.828125 -8.398438 4.828125 -8.234375 C 4.828125 -8.085938 4.898438 -7.976562 5.046875 -7.90625 C 5.191406 -7.832031 5.484375 -7.785156 5.921875 -7.765625 C 6.359375 -7.742188 7.015625 -7.71875 7.890625 -7.6875 C 9.085938 -7.632812 10.160156 -7.5625 11.109375 -7.46875 C 12.054688 -7.375 12.863281 -7.203125 13.53125 -6.953125 C 14.195312 -6.710938 14.707031 -6.359375 15.0625 -5.890625 C 15.425781 -5.429688 15.609375 -4.800781 15.609375 -4 C 15.609375 -2.894531 15.304688 -2.039062 14.703125 -1.4375 C 14.109375 -0.832031 13.238281 -0.410156 12.09375 -0.171875 C 10.945312 0.0546875 9.546875 0.171875 7.890625 0.171875 Z M 7.890625 0.171875 "/></g></g><g style="fill:#c1ff72;fill-opacity:0.6588;"><g transform="translate(68.459134, 86.237426)"><path style="stroke:none" d="M 5.359375 0 L 5.359375 -8.28125 L 0.171875 -8.28125 L 0.171875 -12.078125 L 15.015625 -12.078125 L 15.015625 -8.28125 L 9.84375 -8.28125 L 9.84375 0 Z M 5.359375 0 "/></g></g><g style="fill:#c1ff72;fill-opacity:0.6588;"><g transform="translate(83.484531, 86.237426)"><path style="stroke:none" d="M 7.765625 0.171875 C 5.109375 0.171875 3.175781 -0.335938 1.96875 -1.359375 C 0.769531 -2.390625 0.171875 -3.957031 0.171875 -6.0625 C 0.171875 -8.15625 0.769531 -9.710938 1.96875 -10.734375 C 3.175781 -11.753906 5.109375 -12.265625 7.765625 -12.265625 C 10.410156 -12.265625 12.335938 -11.753906 13.546875 -10.734375 C 14.753906 -9.710938 15.359375 -8.15625 15.359375 -6.0625 C 15.359375 -3.96875 14.753906 -2.40625 13.546875 -1.375 C 12.335938 -0.34375 10.410156 0.171875 7.765625 0.171875 Z M 7.765625 -3.625 C 8.648438 -3.625 9.3125 -3.738281 9.75 -3.96875 C 10.195312 -4.195312 10.492188 -4.492188 10.640625 -4.859375 C 10.796875 -5.234375 10.875 -5.632812 10.875 -6.0625 C 10.875 -6.488281 10.796875 -6.878906 10.640625 -7.234375 C 10.492188 -7.597656 10.195312 -7.890625 9.75 -8.109375 C 9.3125 -8.335938 8.648438 -8.453125 7.765625 -8.453125 C 6.878906 -8.453125 6.210938 -8.335938 5.765625 -8.109375 C 5.328125 -7.890625 5.03125 -7.597656 4.875 -7.234375 C 4.726562 -6.878906 4.65625 -6.488281 4.65625 -6.0625 C 4.65625 -5.632812 4.726562 -5.234375 4.875 -4.859375 C 5.03125 -4.484375 5.332031 -4.179688 5.78125 -3.953125 C 6.226562 -3.734375 6.890625 -3.625 7.765625 -3.625 Z M 7.765625 -3.625 "/></g></g><g style="fill:#c1ff72;fill-opacity:0.6588;"><g transform="translate(99.02805, 86.237426)"><path style="stroke:none" d="M 0.34375 0 L 0.34375 -12.078125 L 9.84375 -12.078125 C 10.757812 -12.078125 11.5625 -11.878906 12.25 -11.484375 C 12.945312 -11.085938 13.488281 -10.539062 13.875 -9.84375 C 14.269531 -9.15625 14.46875 -8.359375 14.46875 -7.453125 C 14.46875 -6.578125 14.273438 -5.789062 13.890625 -5.09375 C 13.515625 -4.40625 12.992188 -3.863281 12.328125 -3.46875 L 14.46875 0 L 9.15625 0 L 7.46875 -2.828125 L 4.828125 -2.828125 L 4.828125 0 Z M 4.828125 -6.625 L 8.984375 -6.625 C 9.128906 -6.625 9.28125 -6.632812 9.4375 -6.65625 C 9.59375 -6.6875 9.722656 -6.757812 9.828125 -6.875 C 9.929688 -6.988281 9.984375 -7.179688 9.984375 -7.453125 C 9.984375 -7.734375 9.929688 -7.929688 9.828125 -8.046875 C 9.722656 -8.160156 9.59375 -8.226562 9.4375 -8.25 C 9.28125 -8.269531 9.128906 -8.28125 8.984375 -8.28125 L 4.828125 -8.28125 Z M 4.828125 -6.625 "/></g></g><g style="fill:#c1ff72;fill-opacity:0.6588;"><g transform="translate(113.6735, 86.237426)"><path style="stroke:none" d="M 0.34375 0 L 0.34375 -12.078125 L 13.125 -12.078125 L 13.125 -8.625 L 4.828125 -8.625 L 4.828125 -7.515625 L 13.125 -7.515625 L 13.125 -4.578125 L 4.828125 -4.578125 L 4.828125 -3.453125 L 13.125 -3.453125 L 13.125 0 Z M 0.34375 0 "/></g></g><g style="fill:#ffffff;fill-opacity:1;"><g transform="translate(53.019246, 84.078446)"><path style="stroke:none" d="M 7.890625 0.171875 C 6.242188 0.171875 4.84375 0.0507812 3.6875 -0.1875 C 2.539062 -0.425781 1.664062 -0.863281 1.0625 -1.5 C 0.46875 -2.144531 0.171875 -3.066406 0.171875 -4.265625 L 4.65625 -4.265625 C 4.65625 -4.066406 4.738281 -3.890625 4.90625 -3.734375 C 5.082031 -3.585938 5.414062 -3.472656 5.90625 -3.390625 C 6.394531 -3.316406 7.113281 -3.28125 8.0625 -3.28125 C 8.945312 -3.28125 9.609375 -3.300781 10.046875 -3.34375 C 10.484375 -3.382812 10.769531 -3.445312 10.90625 -3.53125 C 11.050781 -3.625 11.125 -3.75 11.125 -3.90625 C 11.125 -4.070312 11.050781 -4.195312 10.90625 -4.28125 C 10.757812 -4.375 10.457031 -4.441406 10 -4.484375 C 9.539062 -4.523438 8.835938 -4.554688 7.890625 -4.578125 C 6.066406 -4.628906 4.601562 -4.78125 3.5 -5.03125 C 2.394531 -5.289062 1.59375 -5.691406 1.09375 -6.234375 C 0.59375 -6.785156 0.34375 -7.523438 0.34375 -8.453125 C 0.34375 -9.796875 0.972656 -10.765625 2.234375 -11.359375 C 3.503906 -11.960938 5.332031 -12.265625 7.71875 -12.265625 C 9.289062 -12.265625 10.625 -12.125 11.71875 -11.84375 C 12.8125 -11.570312 13.644531 -11.125 14.21875 -10.5 C 14.800781 -9.882812 15.09375 -9.0625 15.09375 -8.03125 L 10.59375 -8.03125 C 10.59375 -8.351562 10.328125 -8.5625 9.796875 -8.65625 C 9.273438 -8.757812 8.46875 -8.8125 7.375 -8.8125 C 6.664062 -8.8125 6.128906 -8.796875 5.765625 -8.765625 C 5.410156 -8.734375 5.164062 -8.675781 5.03125 -8.59375 C 4.894531 -8.519531 4.828125 -8.398438 4.828125 -8.234375 C 4.828125 -8.085938 4.898438 -7.976562 5.046875 -7.90625 C 5.191406 -7.832031 5.484375 -7.785156 5.921875 -7.765625 C 6.359375 -7.742188 7.015625 -7.71875 7.890625 -7.6875 C 9.085938 -7.632812 10.160156 -7.5625 11.109375 -7.46875 C 12.054688 -7.375 12.863281 -7.203125 13.53125 -6.953125 C 14.195312 -6.710938 14.707031 -6.359375 15.0625 -5.890625 C 15.425781 -5.429688 15.609375 -4.800781 15.609375 -4 C 15.609375 -2.894531 15.304688 -2.039062 14.703125 -1.4375 C 14.109375 -0.832031 13.238281 -0.410156 12.09375 -0.171875 C 10.945312 0.0546875 9.546875 0.171875 7.890625 0.171875 Z M 7.890625 0.171875 "/></g></g><g style="fill:#ffffff;fill-opacity:1;"><g transform="translate(68.459134, 84.078446)"><path style="stroke:none" d="M 5.359375 0 L 5.359375 -8.28125 L 0.171875 -8.28125 L 0.171875 -12.078125 L 15.015625 -12.078125 L 15.015625 -8.28125 L 9.84375 -8.28125 L 9.84375 0 Z M 5.359375 0 "/></g></g><g style="fill:#ffffff;fill-opacity:1;"><g transform="translate(83.484531, 84.078446)"><path style="stroke:none" d="M 7.765625 0.171875 C 5.109375 0.171875 3.175781 -0.335938 1.96875 -1.359375 C 0.769531 -2.390625 0.171875 -3.957031 0.171875 -6.0625 C 0.171875 -8.15625 0.769531 -9.710938 1.96875 -10.734375 C 3.175781 -11.753906 5.109375 -12.265625 7.765625 -12.265625 C 10.410156 -12.265625 12.335938 -11.753906 13.546875 -10.734375 C 14.753906 -9.710938 15.359375 -8.15625 15.359375 -6.0625 C 15.359375 -3.96875 14.753906 -2.40625 13.546875 -1.375 C 12.335938 -0.34375 10.410156 0.171875 7.765625 0.171875 Z M 7.765625 -3.625 C 8.648438 -3.625 9.3125 -3.738281 9.75 -3.96875 C 10.195312 -4.195312 10.492188 -4.492188 10.640625 -4.859375 C 10.796875 -5.234375 10.875 -5.632812 10.875 -6.0625 C 10.875 -6.488281 10.796875 -6.878906 10.640625 -7.234375 C 10.492188 -7.597656 10.195312 -7.890625 9.75 -8.109375 C 9.3125 -8.335938 8.648438 -8.453125 7.765625 -8.453125 C 6.878906 -8.453125 6.210938 -8.335938 5.765625 -8.109375 C 5.328125 -7.890625 5.03125 -7.597656 4.875 -7.234375 C 4.726562 -6.878906 4.65625 -6.488281 4.65625 -6.0625 C 4.65625 -5.632812 4.726562 -5.234375 4.875 -4.859375 C 5.03125 -4.484375 5.332031 -4.179688 5.78125 -3.953125 C 6.226562 -3.734375 6.890625 -3.625 7.765625 -3.625 Z M 7.765625 -3.625 "/></g></g><g style="fill:#ffffff;fill-opacity:1;"><g transform="translate(99.02805, 84.078446)"><path style="stroke:none" d="M 0.34375 0 L 0.34375 -12.078125 L 9.84375 -12.078125 C 10.757812 -12.078125 11.5625 -11.878906 12.25 -11.484375 C 12.945312 -11.085938 13.488281 -10.539062 13.875 -9.84375 C 14.269531 -9.15625 14.46875 -8.359375 14.46875 -7.453125 C 14.46875 -6.578125 14.273438 -5.789062 13.890625 -5.09375 C 13.515625 -4.40625 12.992188 -3.863281 12.328125 -3.46875 L 14.46875 0 L 9.15625 0 L 7.46875 -2.828125 L 4.828125 -2.828125 L 4.828125 0 Z M 4.828125 -6.625 L 8.984375 -6.625 C 9.128906 -6.625 9.28125 -6.632812 9.4375 -6.65625 C 9.59375 -6.6875 9.722656 -6.757812 9.828125 -6.875 C 9.929688 -6.988281 9.984375 -7.179688 9.984375 -7.453125 C 9.984375 -7.734375 9.929688 -7.929688 9.828125 -8.046875 C 9.722656 -8.160156 9.59375 -8.226562 9.4375 -8.25 C 9.28125 -8.269531 9.128906 -8.28125 8.984375 -8.28125 L 4.828125 -8.28125 Z M 4.828125 -6.625 "/></g></g><g style="fill:#ffffff;fill-opacity:1;"><g transform="translate(113.6735, 84.078446)"><path style="stroke:none" d="M 0.34375 0 L 0.34375 -12.078125 L 13.125 -12.078125 L 13.125 -8.625 L 4.828125 -8.625 L 4.828125 -7.515625 L 13.125 -7.515625 L 13.125 -4.578125 L 4.828125 -4.578125 L 4.828125 -3.453125 L 13.125 -3.453125 L 13.125 0 Z M 0.34375 0 "/></g></g><g style="fill:#c1ff72;fill-opacity:0.6588;"><g transform="translate(126.974898, 86.237426)"><path style="stroke:none" d=""/></g></g><g style="fill:#ffffff;fill-opacity:1;"><g transform="translate(126.974898, 84.078446)"><path style="stroke:none" d=""/></g></g></g></svg>